<svg width="116" height="116" viewBox="0 0 116 116" fill="none" xmlns="http://www.w3.org/2000/svg">
<rect width="116" height="116" rx="58" fill="#E6EFFF"/>
<g clip-path="url(#clip0)">
<path d="M47.0116 49.3157L42.7518 37.61C42.6167 37.2389 42.556 36.8449 42.5732 36.4504C42.5903 36.0559 42.685 35.6687 42.8518 35.3108C43.0187 34.9529 43.2544 34.6313 43.5454 34.3645C43.8365 34.0977 44.1773 33.8908 44.5484 33.7557C44.9194 33.6206 45.3134 33.5599 45.7079 33.5771C46.1024 33.5942 46.4897 33.6889 46.8476 33.8557C47.2055 34.0226 47.527 34.2583 47.7938 34.5493C48.0606 34.8404 48.2675 35.1812 48.4026 35.5523L52.6353 47.1813" stroke="#141414" stroke-width="2" stroke-miterlimit="10"/>
<path d="M52.6336 47.1827L48.8141 36.684C48.6791 36.3129 48.6184 35.9188 48.6357 35.5243C48.6529 35.1298 48.7477 34.7425 48.9146 34.3846C49.2517 33.6618 49.8621 33.1025 50.6116 32.8298C51.361 32.557 52.1882 32.5931 52.911 32.9302C53.6338 33.2673 54.1931 33.8777 54.4658 34.6272L59.8334 49.3749" stroke="#141414" stroke-width="2" stroke-miterlimit="10"/>
<path d="M47.0105 49.3156L44.4549 42.2936C44.2085 41.5678 43.7038 40.9579 43.037 40.58C42.3701 40.202 41.5876 40.0825 40.8383 40.244C40.43 40.3466 40.0478 40.5337 39.7164 40.7933C39.385 41.0529 39.1118 41.3791 38.9144 41.751C38.7171 42.1228 38.6 42.532 38.5707 42.9519C38.5414 43.3719 38.6006 43.7933 38.7445 44.1889L44.9862 61.3353C45.0084 61.3951 45.011 61.4604 44.9937 61.5218C44.9764 61.5832 44.9401 61.6375 44.8899 61.6769C44.8397 61.7164 44.7784 61.7388 44.7146 61.7412C44.6509 61.7435 44.588 61.7255 44.5352 61.6898L37.7693 57.2298L35.9047 55.9975C35.2531 55.6093 34.4787 55.4822 33.7372 55.6417C32.9958 55.8012 32.3422 56.2356 31.9079 56.8574C31.4736 57.4792 31.2909 58.2424 31.3964 58.9934C31.5019 59.7445 31.8879 60.4278 32.4767 60.9059L48.1093 75.0175C48.1661 75.0662 48.2293 75.1077 48.2897 75.1492" stroke="#141414" stroke-width="2" stroke-miterlimit="10"/>
<path d="M63.6153 42.2225L62.2333 38.3831C61.9865 37.6575 61.4818 37.0479 60.8151 36.67C60.1483 36.2922 59.366 36.1724 58.6167 36.3335C58.2084 36.4362 57.8262 36.6234 57.4947 36.8831C57.1633 37.1428 56.8901 37.4691 56.6928 37.8411C56.4954 38.213 56.3783 38.6222 56.3491 39.0422C56.3198 39.4622 56.379 39.8837 56.5229 40.2794L59.8337 49.3753" stroke="#141414" stroke-width="2" stroke-miterlimit="10"/>
<path d="M63.0293 56.1982L71.1807 40.7794C71.3653 40.4303 71.6168 40.121 71.921 39.869C72.2251 39.6171 72.5758 39.4276 72.9532 39.3112C73.3306 39.1949 73.7272 39.154 74.1204 39.1909C74.5136 39.2278 74.8956 39.3418 75.2447 39.5264C75.5939 39.711 75.9032 39.9625 76.1551 40.2666C76.407 40.5707 76.5966 40.9215 76.7129 41.2989C76.8293 41.6763 76.8702 42.0729 76.8333 42.466C76.7963 42.8592 76.6823 43.2413 76.4978 43.5904L68.3463 59.0092" stroke="#141414" stroke-width="2" stroke-miterlimit="10" stroke-linecap="square"/>
<path d="M68.3477 59.0099L75.9362 44.6547C76.3088 43.9496 76.9463 43.4214 77.7084 43.1863C78.4704 42.9513 79.2946 43.0285 79.9997 43.4012C80.7048 43.7738 81.233 44.4113 81.4681 45.1734C81.7031 45.9354 81.6258 46.7596 81.2532 47.4647L73.6638 61.82" stroke="#141414" stroke-width="2" stroke-miterlimit="10" stroke-linecap="square"/>
<path d="M63.0297 56.1989L68.8519 45.1878C69.226 44.5184 69.3408 43.7347 69.1744 42.9861C69.0081 42.2375 68.5722 41.5763 67.9498 41.1283C67.5998 40.8943 67.2046 40.7365 66.7897 40.6649C66.3749 40.5933 65.9496 40.6096 65.5415 40.7128C65.1333 40.8159 64.7514 41.0036 64.4203 41.2637C64.0893 41.5237 63.8165 41.8504 63.6197 42.2226L55.0866 58.3586C55.0572 58.4146 55.0108 58.4599 54.9541 58.488C54.8974 58.5161 54.8333 58.5255 54.7709 58.515C54.7085 58.5045 54.651 58.4746 54.6066 58.4295C54.5622 58.3844 54.5332 58.3264 54.5237 58.2638L53.2933 50.2558L52.9532 48.0421C52.8097 47.2926 52.386 46.6259 51.7683 46.1777C51.1507 45.7296 50.3855 45.5336 49.6284 45.6297C48.8714 45.7258 48.1794 46.1067 47.6933 46.695C47.2072 47.2833 46.9636 48.0346 47.0119 48.7962V69.8541C47.1299 72.8964 48.2477 75.815 50.1921 78.1579C52.1365 80.5007 54.799 82.1372 57.7675 82.8139C60.7359 83.4907 63.8447 83.1699 66.6124 81.9012C69.3801 80.6326 71.6524 78.4869 73.0774 75.7963L83.678 55.7424C84.0517 55.0729 84.1663 54.2894 84 53.5409C83.8337 52.7924 83.398 52.1312 82.7759 51.683C82.4259 51.449 82.0307 51.2911 81.6159 51.2195C81.201 51.148 80.7758 51.1643 80.3676 51.2674C79.9594 51.3706 79.5775 51.5582 79.2464 51.8183C78.9154 52.0784 78.6426 52.4051 78.4458 52.7772L73.6647 61.8154" stroke="#141414" stroke-width="2" stroke-miterlimit="10" stroke-linecap="square"/>
</g>
<defs>
<clipPath id="clip0">
<rect width="56" height="53.5294" fill="white" transform="translate(30 31)"/>
</clipPath>
</defs>
</svg>
