<svg width="116" height="116" viewBox="0 0 116 116" fill="none" xmlns="http://www.w3.org/2000/svg">
<rect width="116" height="116" rx="58" fill="#E6EFFF"/>
<path d="M46.4161 66.8634C48.0158 66.8634 49.3126 65.5666 49.3126 63.9669C49.3126 62.3671 48.0158 61.0703 46.4161 61.0703C44.8164 61.0703 43.5195 62.3671 43.5195 63.9669C43.5195 65.5666 44.8164 66.8634 46.4161 66.8634Z" fill="#141414"/>
<path d="M57.1996 60.1037C56.3123 58.0707 54.7521 56.4052 52.7813 55.3872C50.8105 54.3693 48.5492 54.061 46.3778 54.5142C44.2064 54.9674 42.2573 56.1545 40.8582 57.8757C39.4591 59.597 38.6953 61.7475 38.6953 63.9657C38.6953 66.1839 39.4591 68.3344 40.8582 70.0557C42.2573 71.777 44.2064 72.964 46.3778 73.4172C48.5492 73.8704 50.8105 73.5621 52.7813 72.5442C54.7521 71.5263 56.3123 69.8608 57.1996 67.8278H64.7731L68.6352 70.7244L72.4973 67.8278H77.3248L79.2559 60.1037H57.1996Z" stroke="#141414" stroke-width="2" stroke-miterlimit="10" stroke-linecap="square"/>
<path d="M30 46.5859H86" stroke="#141414" stroke-width="2" stroke-miterlimit="10"/>
<path d="M86 35H30V81.3448H86V35Z" stroke="#141414" stroke-width="2" stroke-miterlimit="10" stroke-linecap="square"/>
<path d="M36.7592 42.7254C37.8256 42.7254 38.6902 41.8608 38.6902 40.7943C38.6902 39.7278 37.8256 38.8633 36.7592 38.8633C35.6927 38.8633 34.8281 39.7278 34.8281 40.7943C34.8281 41.8608 35.6927 42.7254 36.7592 42.7254Z" fill="#141414"/>
<path d="M44.4818 42.7254C45.5483 42.7254 46.4129 41.8608 46.4129 40.7943C46.4129 39.7278 45.5483 38.8633 44.4818 38.8633C43.4153 38.8633 42.5508 39.7278 42.5508 40.7943C42.5508 41.8608 43.4153 42.7254 44.4818 42.7254Z" fill="#141414"/>
</svg>
