<svg width="202" height="29" viewBox="0 0 202 29" fill="none" xmlns="http://www.w3.org/2000/svg">
<g clip-path="url(#clip0)">
<path d="M43.6662 22.2081C42.2566 22.2081 41.08 21.94 40.1366 21.3926C39.1931 20.8564 38.3718 20.1303 37.6836 19.2254L39.3596 17.8626C39.9479 18.611 40.6028 19.1919 41.3242 19.5941C42.0457 19.9962 42.8893 20.1973 43.8438 20.1973C44.8428 20.1973 45.6197 19.9851 46.1747 19.5494C46.7297 19.1137 47.0072 18.5105 47.0072 17.7173C47.0072 17.1253 46.8185 16.6226 46.43 16.1981C46.0526 15.7736 45.3645 15.4831 44.3655 15.3267L43.1668 15.148C42.4675 15.0475 41.8126 14.9022 41.2354 14.69C40.6472 14.4777 40.1366 14.2096 39.6926 13.8633C39.2486 13.517 38.9156 13.0925 38.6603 12.5787C38.4162 12.0648 38.2941 11.4616 38.2941 10.7466C38.2941 9.99815 38.4273 9.33906 38.7048 8.78051C38.9822 8.22196 39.3596 7.75278 39.8369 7.37296C40.3142 7.00432 40.8914 6.71387 41.5573 6.53514C42.2233 6.34523 42.9337 6.25586 43.6995 6.25586C44.9316 6.25586 45.9638 6.46811 46.7963 6.90378C47.6288 7.33945 48.3502 7.94269 48.9829 8.70232L47.429 10.121C47.096 9.65185 46.6076 9.21618 45.9638 8.83637C45.3201 8.45655 44.5098 8.25547 43.533 8.25547C42.5563 8.25547 41.8126 8.46772 41.3131 8.89222C40.8137 9.31672 40.5695 9.88644 40.5695 10.6237C40.5695 11.3722 40.8137 11.9084 41.3131 12.2435C41.8126 12.5787 42.5341 12.8244 43.4664 12.9808L44.643 13.1596C46.3301 13.4165 47.5178 13.908 48.217 14.623C48.9163 15.3379 49.2715 16.2763 49.2715 17.4381C49.2715 18.9126 48.772 20.0744 47.7731 20.9234C46.7741 21.7836 45.4089 22.2081 43.6662 22.2081Z" fill="black"/>
<path d="M53.4023 0H55.7443V9.07088H55.8664C56.2327 8.21071 56.7655 7.52928 57.4315 7.02658C58.1085 6.52388 59.0076 6.26695 60.1398 6.26695C61.7048 6.26695 62.9368 6.76965 63.847 7.78621C64.7572 8.80277 65.2123 10.2327 65.2123 12.0871V21.8617H62.8703V12.478C62.8703 9.74114 61.727 8.3671 59.4405 8.3671C58.9743 8.3671 58.5192 8.42296 58.0752 8.54584C57.6313 8.66872 57.2428 8.84746 56.8876 9.08205C56.5324 9.31664 56.2549 9.61826 56.0551 9.9869C55.8553 10.3555 55.7443 10.78 55.7443 11.2716V21.8617H53.4023V0V0Z" fill="black"/>
<path d="M81.0695 21.8506C80.1926 21.8506 79.5599 21.616 79.1826 21.1468C78.8052 20.6777 78.561 20.0856 78.4611 19.3706H78.3168C77.9838 20.3202 77.4399 21.024 76.6741 21.4931C75.9082 21.9623 74.998 22.1969 73.9436 22.1969C72.3341 22.1969 71.091 21.7836 70.203 20.9569C69.3151 20.1303 68.8711 19.0132 68.8711 17.5945C68.8711 16.1534 69.3928 15.0586 70.4361 14.2878C71.4795 13.517 73.1111 13.1372 75.3199 13.1372H78.3168V11.6291C78.3168 10.5455 78.0282 9.71888 77.4399 9.14916C76.8517 8.57943 75.9526 8.28899 74.7427 8.28899C73.8215 8.28899 73.0556 8.50124 72.4451 8.91457C71.8236 9.32789 71.313 9.87527 70.9023 10.5679L69.4816 9.23852C69.8922 8.41187 70.5471 7.70809 71.4462 7.1272C72.3452 6.54631 73.4774 6.25586 74.8537 6.25586C76.6963 6.25586 78.117 6.7027 79.1382 7.60755C80.1593 8.51241 80.6588 9.76356 80.6588 11.3834V19.7505H82.3903V21.8506H81.0695V21.8506ZM74.321 20.1973C74.9092 20.1973 75.442 20.1303 75.9304 19.9851C76.4188 19.851 76.8406 19.6499 77.1957 19.393C77.5509 19.1361 77.8173 18.8456 78.0171 18.5105C78.2169 18.1753 78.3057 17.8067 78.3057 17.4157V14.9022H75.1978C73.8437 14.9022 72.8669 15.1033 72.2454 15.4943C71.6238 15.8853 71.3241 16.455 71.3241 17.2035V17.829C71.3241 18.5775 71.5905 19.1584 72.1344 19.5717C72.6671 19.9851 73.3997 20.1973 74.321 20.1973Z" fill="black"/>
<path d="M85.7344 21.8506V6.61328H88.0764V9.41721H88.2207C88.4981 8.69109 88.9865 8.04317 89.6858 7.47345C90.3851 6.90373 91.3618 6.61328 92.5939 6.61328H93.504V8.97037H92.1277C90.8512 8.97037 89.8634 9.21613 89.153 9.69649C88.4427 10.1768 88.0875 10.7801 88.0875 11.5174V21.8506H85.7344V21.8506Z" fill="black"/>
<path d="M102.05 22.2086C101.018 22.2086 100.074 22.0187 99.253 21.6501C98.4206 21.2814 97.7102 20.7452 97.1108 20.0415C96.5114 19.3377 96.0564 18.511 95.7345 17.528C95.4126 16.5561 95.2461 15.4613 95.2461 14.2325C95.2461 13.0372 95.4126 11.9425 95.7345 10.9594C96.0564 9.97636 96.5114 9.13853 97.1108 8.43476C97.7102 7.73098 98.4206 7.19477 99.253 6.82613C100.085 6.45749 101.018 6.26758 102.05 6.26758C103.071 6.26758 103.981 6.45749 104.781 6.82613C105.58 7.19477 106.268 7.71981 106.834 8.36773C107.4 9.02682 107.833 9.8088 108.144 10.7025C108.443 11.6073 108.599 12.5904 108.599 13.674V14.7911H97.7102V15.4948C97.7102 16.1428 97.8101 16.746 98.021 17.3157C98.2208 17.8743 98.5205 18.3658 98.8978 18.7791C99.2752 19.1925 99.7525 19.5164 100.307 19.751C100.862 19.9856 101.495 20.1085 102.194 20.1085C103.149 20.1085 103.993 19.8851 104.703 19.4271C105.413 18.969 105.968 18.3211 106.357 17.4833L108.033 18.7009C107.544 19.751 106.778 20.6 105.746 21.2368C104.703 21.8847 103.471 22.2086 102.05 22.2086ZM102.05 8.23368C101.406 8.23368 100.818 8.34539 100.285 8.56881C99.7525 8.79223 99.2974 9.11619 98.92 9.51835C98.5427 9.93168 98.243 10.412 98.021 10.9706C97.8101 11.5291 97.6991 12.1435 97.6991 12.8026V13.0037H106.057V12.6798C106.057 11.3281 105.691 10.2445 104.958 9.44015C104.226 8.64701 103.26 8.23368 102.05 8.23368Z" fill="black"/>
<path d="M120.586 22.2194C119.454 22.2194 118.444 22.0295 117.567 21.6609C116.69 21.2922 115.946 20.7448 115.347 20.0411C114.748 19.3373 114.293 18.4771 113.982 17.4829C113.671 16.4887 113.516 15.3716 113.516 14.1316C113.516 12.8916 113.671 11.7745 113.982 10.7914C114.293 9.80839 114.748 8.97056 115.347 8.26679C115.946 7.56301 116.679 7.02681 117.567 6.65816C118.444 6.28952 119.454 6.09961 120.586 6.09961C122.129 6.09961 123.405 6.44591 124.415 7.13852C125.425 7.83112 126.147 8.78066 126.602 9.9983L123.516 11.3835C123.339 10.7356 123.017 10.1994 122.528 9.77488C122.051 9.35038 121.396 9.13813 120.575 9.13813C119.52 9.13813 118.732 9.47326 118.211 10.1435C117.689 10.8138 117.434 11.6851 117.434 12.7687V15.5726C117.434 16.6562 117.689 17.5276 118.211 18.1867C118.732 18.8458 119.52 19.1809 120.575 19.1809C121.474 19.1809 122.173 18.9463 122.662 18.4883C123.15 18.0303 123.527 17.4494 123.805 16.7568L126.68 18.142C126.169 19.5048 125.403 20.5214 124.36 21.2028C123.339 21.8843 122.073 22.2194 120.586 22.2194Z" fill="black"/>
<path d="M140.865 21.8619C140.043 21.8619 139.389 21.6162 138.911 21.1358C138.434 20.6555 138.134 20.0075 138.012 19.2032H137.835C137.579 20.2086 137.058 20.9571 136.281 21.4598C135.504 21.9625 134.527 22.2082 133.373 22.2082C131.808 22.2082 130.609 21.7949 129.765 20.9683C128.922 20.1416 128.5 19.0468 128.5 17.6728C128.5 16.0865 129.066 14.9024 130.198 14.1316C131.33 13.3608 132.951 12.9698 135.038 12.9698H137.646V11.8527C137.646 10.9814 137.424 10.3223 136.969 9.84191C136.514 9.37272 135.792 9.13813 134.793 9.13813C133.917 9.13813 133.206 9.32804 132.662 9.71902C132.13 10.0988 131.674 10.5569 131.297 11.0931L129.066 9.0711C129.632 8.17742 130.387 7.46248 131.33 6.9151C132.274 6.36771 133.506 6.09961 135.06 6.09961C137.135 6.09961 138.712 6.56879 139.788 7.51833C140.865 8.4567 141.398 9.81956 141.398 11.5846V18.8346H142.918V21.8731H140.865V21.8619ZM134.638 19.4713C135.482 19.4713 136.192 19.2814 136.78 18.9128C137.369 18.5441 137.657 17.9968 137.657 17.2706V15.2487H135.249C133.295 15.2487 132.318 15.8743 132.318 17.1254V17.6281C132.318 18.2537 132.518 18.7229 132.918 19.0245C133.328 19.3261 133.894 19.4713 134.638 19.4713Z" fill="black"/>
<path d="M149.744 21.8623C148.456 21.8623 147.502 21.5383 146.902 20.8904C146.292 20.2425 145.992 19.3264 145.992 18.1423V0.0117188H149.744V18.8237H151.764V21.8623H149.744Z" fill="black"/>
<path d="M154.617 21.8614V6.44536H158.369V9.0147H158.513C158.802 8.21039 159.279 7.51778 159.923 6.94806C160.567 6.37834 161.466 6.08789 162.62 6.08789C163.674 6.08789 164.585 6.34482 165.35 6.85869C166.116 7.37256 166.682 8.14336 167.049 9.19344H167.104C167.382 8.3221 167.925 7.59598 168.736 6.99274C169.546 6.38951 170.567 6.08789 171.799 6.08789C173.309 6.08789 174.463 6.61293 175.273 7.65184C176.084 8.69074 176.494 10.1765 176.494 12.1091V21.8502H172.743V12.4889C172.743 10.2882 171.921 9.18227 170.279 9.18227C169.912 9.18227 169.546 9.23812 169.213 9.34983C168.869 9.46154 168.569 9.61794 168.303 9.81902C168.036 10.0313 167.826 10.277 167.67 10.5898C167.515 10.8914 167.437 11.2489 167.437 11.6622V21.8502H163.685V12.4889C163.685 10.2882 162.864 9.18227 161.221 9.18227C160.866 9.18227 160.522 9.23812 160.178 9.34983C159.834 9.46154 159.534 9.61794 159.268 9.81902C159.001 10.0313 158.791 10.277 158.624 10.5898C158.458 10.8914 158.38 11.2489 158.38 11.6622V21.8502H154.617V21.8614Z" fill="black"/>
<path d="M184.431 21.8623C183.144 21.8623 182.189 21.5383 181.59 20.8904C180.979 20.2425 180.68 19.3264 180.68 18.1423V0.0117188H184.431V18.8237H186.451V21.8623H184.431Z" fill="black"/>
<path d="M198.483 6.44531H202.001L195.841 24.6094C195.641 25.1568 195.431 25.6371 195.186 26.0393C194.942 26.4415 194.654 26.7766 194.321 27.0335C193.988 27.2905 193.588 27.4804 193.122 27.5921C192.656 27.715 192.101 27.7708 191.479 27.7708H189.215V24.7323H191.967L192.667 22.5763L187.184 6.45648H190.913L193.588 14.589L194.587 18.4765H194.765L195.819 14.589L198.483 6.44531Z" fill="black"/>
<path d="M20.08 0H4.92005C2.21402 0 0 2.24395 0 4.98657V16.2531C0 17.6244 0.568881 18.9645 1.56827 19.8995L10.2399 28.0806C10.8702 28.6883 11.6851 28.9844 12.5 28.9844C13.3149 28.9844 14.1298 28.6883 14.7601 28.0806L23.4317 19.8995C24.4311 18.9645 25 17.6244 25 16.2531V4.98657C25 2.24395 22.786 0 20.08 0ZM21.679 16.2531C21.679 16.705 21.4945 17.1257 21.1716 17.4374L12.5 25.6185L3.82841 17.4374C3.50554 17.1257 3.32103 16.705 3.32103 16.2531V4.98657C3.32103 4.09833 4.04367 3.36593 4.92005 3.36593H10.5474L12.3001 1.8388C12.4385 1.71413 12.6384 1.71413 12.7614 1.8388L14.5295 3.36593H20.08C20.9563 3.36593 21.679 4.09833 21.679 4.98657V16.2531Z" fill="black"/>
<path d="M12.7295 3.44317C12.6218 3.34967 12.4835 3.34967 12.3758 3.44317L4.73438 10.0348V14.3669L10.8998 9.03747H10.9152V25.462C10.9152 26.4437 11.6993 27.2229 12.668 27.1449C13.5136 27.0826 14.1747 26.3658 14.1747 25.5087V9.03747C14.1747 9.03747 14.1747 9.02189 14.1901 9.03747L20.2633 14.2734V9.94129L12.7295 3.44317Z" fill="black"/>
</g>
<defs>
<clipPath id="clip0">
<rect width="202" height="29" fill="white"/>
</clipPath>
</defs>
</svg>
