<svg width="307" height="44" viewBox="0 0 307 44" fill="none" xmlns="http://www.w3.org/2000/svg">
<g clip-path="url(#clip0)">
<path d="M66.2255 33.6995C64.0868 33.6995 62.3017 33.2927 60.8702 32.4622C59.4388 31.6486 58.1926 30.5469 57.1484 29.1741L59.6914 27.1063C60.5839 28.2419 61.5775 29.1232 62.6722 29.7334C63.7668 30.3435 65.0467 30.6486 66.495 30.6486C68.0107 30.6486 69.1895 30.3266 70.0315 29.6656C70.8736 29.0046 71.2946 28.0893 71.2946 26.8859C71.2946 25.9876 71.0083 25.2249 70.4189 24.5808C69.8463 23.9368 68.8022 23.4961 67.2865 23.2588L65.4677 22.9876C64.4068 22.8351 63.4132 22.6147 62.5374 22.2927C61.6449 21.9707 60.8702 21.5639 60.1966 21.0385C59.523 20.513 59.0177 19.869 58.6304 19.0893C58.2599 18.3097 58.0747 17.3944 58.0747 16.3097C58.0747 15.1741 58.2768 14.1741 58.6978 13.3266C59.1188 12.4791 59.6914 11.7673 60.4155 11.191C61.1397 10.6317 62.0154 10.191 63.0258 9.91982C64.0363 9.63169 65.1141 9.49609 66.2761 9.49609C68.1454 9.49609 69.7116 9.81813 70.9746 10.4791C72.2377 11.1402 73.3323 12.0554 74.2922 13.208L71.9345 15.3605C71.4293 14.6486 70.6883 13.9876 69.7116 13.4113C68.7348 12.8351 67.5054 12.53 66.0235 12.53C64.5415 12.53 63.4132 12.852 62.6553 13.4961C61.8975 14.1402 61.527 15.0046 61.527 16.1232C61.527 17.2588 61.8975 18.0724 62.6553 18.5808C63.4132 19.0893 64.5078 19.4622 65.9224 19.6995L67.7075 19.9707C70.2673 20.3605 72.0692 21.1063 73.1302 22.191C74.1912 23.2758 74.7301 24.6995 74.7301 26.4622C74.7301 28.6995 73.9722 30.4622 72.4566 31.7503C70.9409 33.0554 68.8695 33.6995 66.2255 33.6995Z" fill="#5C6066"/>
<path d="M80.9961 0H84.5495V13.7627H84.7347C85.2905 12.4576 86.0988 11.4237 87.1092 10.661C88.1365 9.89831 89.5006 9.50847 91.2184 9.50847C93.5929 9.50847 95.4622 10.2712 96.8431 11.8136C98.2241 13.3559 98.9145 15.5254 98.9145 18.339V33.1695H95.3612V18.9322C95.3612 14.7797 93.6266 12.6949 90.1574 12.6949C89.4501 12.6949 88.7596 12.7797 88.086 12.9661C87.4124 13.1525 86.823 13.4237 86.2841 13.7797C85.7452 14.1356 85.3241 14.5932 85.021 15.1525C84.7179 15.7119 84.5495 16.3559 84.5495 17.1017V33.1695H80.9961V0V0Z" fill="#5C6066"/>
<path d="M123.008 33.1571C121.677 33.1571 120.718 32.8012 120.145 32.0893C119.572 31.3774 119.202 30.4791 119.05 29.3944H118.831C118.326 30.8351 117.501 31.9029 116.339 32.6147C115.177 33.3266 113.796 33.6825 112.196 33.6825C109.754 33.6825 107.868 33.0554 106.521 31.8012C105.174 30.5469 104.5 28.852 104.5 26.6995C104.5 24.513 105.292 22.852 106.875 21.6825C108.458 20.513 110.933 19.9368 114.284 19.9368H118.831V17.6486C118.831 16.0046 118.394 14.7503 117.501 13.8859C116.608 13.0215 115.244 12.5808 113.409 12.5808C112.011 12.5808 110.849 12.9029 109.923 13.53C108.98 14.1571 108.205 14.9876 107.582 16.0385L105.426 14.0215C106.049 12.7673 107.043 11.6995 108.407 10.8181C109.771 9.93677 111.489 9.49609 113.577 9.49609C116.373 9.49609 118.528 10.1741 120.078 11.5469C121.627 12.9198 122.385 14.8181 122.385 17.2758V29.9707H125.012V33.1571H123.008V33.1571ZM112.769 30.6486C113.661 30.6486 114.47 30.5469 115.211 30.3266C115.952 30.1232 116.592 29.8181 117.13 29.4283C117.669 29.0385 118.074 28.5978 118.377 28.0893C118.68 27.5808 118.815 27.0215 118.815 26.4283V22.6147H114.099C112.045 22.6147 110.563 22.9198 109.62 23.513C108.676 24.1063 108.222 24.9707 108.222 26.1063V27.0554C108.222 28.191 108.626 29.0724 109.451 29.6995C110.26 30.3266 111.371 30.6486 112.769 30.6486Z" fill="#5C6066"/>
<path d="M130.066 33.1518V10.0332H133.62V14.2874H133.839C134.26 13.1857 135.001 12.2027 136.062 11.3383C137.123 10.4739 138.605 10.0332 140.474 10.0332H141.855V13.6095H139.767C137.83 13.6095 136.331 13.9824 135.253 14.7112C134.176 15.44 133.637 16.3552 133.637 17.4739V33.1518H130.066V33.1518Z" fill="#5C6066"/>
<path d="M154.827 33.6825C153.261 33.6825 151.83 33.3944 150.583 32.8351C149.32 32.2758 148.243 31.4622 147.333 30.3944C146.424 29.3266 145.733 28.0724 145.245 26.5808C144.757 25.1063 144.504 23.4452 144.504 21.5808C144.504 19.7673 144.757 18.1063 145.245 16.6147C145.733 15.1232 146.424 13.852 147.333 12.7842C148.243 11.7164 149.32 10.9029 150.583 10.3436C151.846 9.78423 153.261 9.49609 154.827 9.49609C156.377 9.49609 157.757 9.78423 158.97 10.3436C160.182 10.9029 161.227 11.6995 162.085 12.6825C162.944 13.6825 163.601 14.869 164.073 16.2249C164.527 17.5978 164.763 19.0893 164.763 20.7334V22.4283H148.243V23.4961C148.243 24.4791 148.394 25.3944 148.714 26.2588C149.017 27.1063 149.472 27.852 150.044 28.4791C150.617 29.1063 151.341 29.5978 152.183 29.9537C153.025 30.3097 153.985 30.4961 155.046 30.4961C156.494 30.4961 157.774 30.1571 158.852 29.4622C159.93 28.7673 160.772 27.7842 161.361 26.513L163.904 28.3605C163.163 29.9537 162.001 31.2419 160.435 32.208C158.852 33.191 156.983 33.6825 154.827 33.6825ZM154.827 12.4791C153.85 12.4791 152.958 12.6486 152.15 12.9876C151.341 13.3266 150.651 13.8181 150.078 14.4283C149.506 15.0554 149.051 15.7842 148.714 16.6317C148.394 17.4791 148.226 18.4113 148.226 19.4113V19.7164H160.907V19.2249C160.907 17.1741 160.351 15.53 159.239 14.3097C158.128 13.1063 156.663 12.4791 154.827 12.4791Z" fill="#5C6066"/>
<path d="M182.903 33.7174C181.186 33.7174 179.653 33.4293 178.323 32.8699C176.992 32.3106 175.864 31.4801 174.954 30.4123C174.045 29.3445 173.355 28.0394 172.883 26.531C172.412 25.0225 172.176 23.3276 172.176 21.4462C172.176 19.5648 172.412 17.8699 172.883 16.3784C173.355 14.8869 174.045 13.6157 174.954 12.5479C175.864 11.4801 176.975 10.6665 178.323 10.1072C179.653 9.5479 181.186 9.25977 182.903 9.25977C185.244 9.25977 187.181 9.78519 188.713 10.836C190.246 11.8869 191.34 13.3276 192.031 15.175L187.349 17.2767C187.08 16.2937 186.591 15.4801 185.85 14.836C185.126 14.192 184.133 13.8699 182.886 13.8699C181.287 13.8699 180.091 14.3784 179.299 15.3954C178.508 16.4123 178.121 17.7343 178.121 19.3784V23.6326C178.121 25.2767 178.508 26.5987 179.299 27.5987C180.091 28.5987 181.287 29.1072 182.886 29.1072C184.251 29.1072 185.311 28.7513 186.052 28.0564C186.793 27.3615 187.366 26.4801 187.787 25.4293L192.149 27.531C191.374 29.5987 190.212 31.1411 188.629 32.175C187.08 33.2089 185.16 33.7174 182.903 33.7174Z" fill="#5C6066"/>
<path d="M213.667 33.175C212.421 33.175 211.427 32.8021 210.703 32.0733C209.979 31.3445 209.524 30.3615 209.339 29.1411H209.069C208.682 30.6665 207.89 31.8021 206.712 32.5649C205.533 33.3276 204.051 33.7004 202.299 33.7004C199.925 33.7004 198.106 33.0733 196.826 31.8191C195.546 30.5649 194.906 28.9038 194.906 26.8191C194.906 24.4123 195.765 22.6157 197.483 21.4462C199.201 20.2767 201.659 19.6835 204.825 19.6835H208.783V17.9886C208.783 16.6665 208.446 15.6665 207.756 14.9377C207.065 14.2259 205.971 13.8699 204.455 13.8699C203.124 13.8699 202.047 14.1581 201.221 14.7513C200.413 15.3276 199.723 16.0225 199.15 16.836L195.765 13.7682C196.624 12.4123 197.769 11.3276 199.201 10.4971C200.632 9.66655 202.501 9.25977 204.859 9.25977C208.008 9.25977 210.4 9.97163 212.033 11.4123C213.667 12.836 214.475 14.9038 214.475 17.5818V28.5818H216.782V33.192H213.667V33.175ZM204.219 29.5479C205.499 29.5479 206.577 29.2598 207.469 28.7004C208.362 28.1411 208.8 27.3106 208.8 26.2089V23.1411H205.145C202.181 23.1411 200.699 24.0903 200.699 25.9886V26.7513C200.699 27.7004 201.003 28.4123 201.609 28.8699C202.232 29.3276 203.091 29.5479 204.219 29.5479Z" fill="#5C6066"/>
<path d="M227.153 33.174C225.2 33.174 223.751 32.6825 222.842 31.6995C221.916 30.7164 221.461 29.3266 221.461 27.53V0.0214844H227.153V28.5639H230.218V33.174H227.153Z" fill="#5C6066"/>
<path d="M234.523 33.192V9.80214H240.216V13.7004H240.434C240.872 12.4801 241.597 11.4293 242.573 10.5649C243.55 9.70044 244.914 9.25977 246.666 9.25977C248.265 9.25977 249.646 9.6496 250.808 10.4293C251.97 11.2089 252.829 12.3784 253.385 13.9716H253.469C253.89 12.6496 254.715 11.5479 255.945 10.6326C257.174 9.71739 258.723 9.25977 260.593 9.25977C262.883 9.25977 264.634 10.0564 265.864 11.6326C267.093 13.2089 267.716 15.4632 267.716 18.3954V33.175H262.024V18.9716C262.024 15.6326 260.778 13.9547 258.286 13.9547C257.73 13.9547 257.174 14.0394 256.669 14.2089C256.147 14.3784 255.692 14.6157 255.288 14.9208C254.884 15.2428 254.564 15.6157 254.328 16.0903C254.092 16.5479 253.974 17.0903 253.974 17.7174V33.175H248.282V18.9716C248.282 15.6326 247.036 13.9547 244.544 13.9547C244.005 13.9547 243.483 14.0394 242.961 14.2089C242.439 14.3784 241.984 14.6157 241.58 14.9208C241.175 15.2428 240.856 15.6157 240.603 16.0903C240.35 16.5479 240.232 17.0903 240.232 17.7174V33.175H234.523V33.192Z" fill="#5C6066"/>
<path d="M279.79 33.174C277.836 33.174 276.388 32.6825 275.479 31.6995C274.552 30.7164 274.098 29.3266 274.098 27.53V0.0214844H279.79V28.5639H282.855V33.174H279.79Z" fill="#5C6066"/>
<path d="M301.081 9.79688H306.42L297.073 37.3562C296.77 38.1867 296.45 38.9155 296.08 39.5257C295.709 40.1359 295.271 40.6443 294.766 41.0342C294.261 41.424 293.655 41.7121 292.947 41.8816C292.24 42.0681 291.398 42.1528 290.455 42.1528H287.019V37.5426H291.196L292.257 34.2715L283.938 9.81382H289.596L293.655 22.1528L295.17 28.0511H295.44L297.04 22.1528L301.081 9.79688Z" fill="#5C6066"/>
<g clip-path="url(#clip1)">
<path d="M30.4661 0H7.4649C3.35921 0 0 3.40462 0 7.56582V24.6599C0 26.7405 0.863129 28.7738 2.37944 30.1924L15.5363 42.605C16.4928 43.5271 17.7291 43.9764 18.9655 43.9764C20.2019 43.9764 21.4383 43.5271 22.3947 42.605L35.5516 30.1924C37.0679 28.7738 37.931 26.7405 37.931 24.6599V7.56582C37.931 3.40462 34.5718 0 30.4661 0ZM32.8922 24.6599C32.8922 25.3455 32.6123 25.9839 32.1224 26.4567L18.9655 38.8694L5.80863 26.4567C5.31874 25.9839 5.03881 25.3455 5.03881 24.6599V7.56582C5.03881 6.21816 6.13522 5.10693 7.4649 5.10693H16.0029L18.6623 2.7899C18.8722 2.60075 19.1755 2.60075 19.3621 2.7899L22.0448 5.10693H30.4661C31.7958 5.10693 32.8922 6.21816 32.8922 7.56582V24.6599Z" fill="#5C6066"/>
<path d="M19.3062 5.21968C19.1429 5.07782 18.933 5.07782 18.7697 5.21968L7.17578 15.2207V21.7936L16.5302 13.7076H16.5536V38.6275C16.5536 40.117 17.7433 41.2992 19.2129 41.181C20.496 41.0864 21.4991 39.9988 21.4991 38.6984V13.7076C21.4991 13.7076 21.4991 13.6839 21.5224 13.7076L30.7369 21.6517V15.0789L19.3062 5.21968Z" fill="#5C6066"/>
</g>
</g>
<defs>
<clipPath id="clip0">
<rect width="306.483" height="44" fill="white"/>
</clipPath>
<clipPath id="clip1">
<rect width="37.931" height="44" fill="white"/>
</clipPath>
</defs>
</svg>
