<svg width="116" height="116" viewBox="0 0 116 116" fill="none" xmlns="http://www.w3.org/2000/svg">
<rect width="116" height="116" rx="58" fill="#E6EFFF"/>
<path d="M58.0043 59.7469C60.9019 59.7469 63.2508 57.398 63.2508 54.5004C63.2508 51.6028 60.9019 49.2539 58.0043 49.2539C55.1068 49.2539 52.7578 51.6028 52.7578 54.5004C52.7578 57.398 55.1068 59.7469 58.0043 59.7469Z" fill="#141414"/>
<path d="M32.2205 59.4639C31.9157 59.0358 31.7513 58.5236 31.75 57.9981C31.7488 57.4725 31.9107 56.9595 32.2135 56.53C35.1815 52.3186 44.6945 40.5 58.0006 40.5C71.1913 40.5 80.7699 52.3011 83.7773 56.5221C84.084 56.9534 84.2482 57.4697 84.247 57.9989C84.2457 58.5281 84.079 59.0437 83.7703 59.4735C80.7436 63.6875 71.0906 75.5 58.0006 75.5C44.7986 75.5 35.2113 63.6709 32.2205 59.4639Z" stroke="#141414" stroke-width="2" stroke-miterlimit="10" stroke-linecap="square"/>
<path d="M58.0043 68.4969C65.7344 68.4969 72.0008 62.2305 72.0008 54.5004C72.0008 46.7704 65.7344 40.5039 58.0043 40.5039C50.2743 40.5039 44.0078 46.7704 44.0078 54.5004C44.0078 62.2305 50.2743 68.4969 58.0043 68.4969Z" stroke="#141414" stroke-width="2" stroke-miterlimit="10" stroke-linecap="square"/>
<path d="M58.0043 59.7469C60.9019 59.7469 63.2508 57.398 63.2508 54.5004C63.2508 51.6028 60.9019 49.2539 58.0043 49.2539C55.1068 49.2539 52.7578 51.6028 52.7578 54.5004C52.7578 57.398 55.1068 59.7469 58.0043 59.7469Z" stroke="#141414" stroke-width="2" stroke-miterlimit="10" stroke-linecap="square"/>
<path d="M32.625 79.875L79.875 32.625" stroke="#141414" stroke-width="2" stroke-miterlimit="10" stroke-linecap="square"/>
</svg>
