<svg width="116" height="116" viewBox="0 0 116 116" fill="none" xmlns="http://www.w3.org/2000/svg">
<rect width="116" height="116" rx="58" fill="#E6EFFF"/>
<path d="M71 59H59V71H71V59Z" stroke="#141414" stroke-width="2" stroke-miterlimit="10" stroke-linecap="square"/>
<path d="M59 59H55C53.9391 59 52.9217 58.5786 52.1716 57.8284C51.4214 57.0783 51 56.0609 51 55C51 53.9391 51.4214 52.9217 52.1716 52.1716C52.9217 51.4214 53.9391 51 55 51V51C56.0609 51 57.0783 51.4214 57.8284 52.1716C58.5786 52.9217 59 53.9391 59 55V59Z" stroke="#141414" stroke-width="2" stroke-miterlimit="10" stroke-linecap="square"/>
<path d="M71 59H75C76.0609 59 77.0783 58.5786 77.8284 57.8284C78.5786 57.0783 79 56.0609 79 55C79 53.9391 78.5786 52.9217 77.8284 52.1716C77.0783 51.4214 76.0609 51 75 51C73.9391 51 72.9217 51.4214 72.1716 52.1716C71.4214 52.9217 71 53.9391 71 55V59Z" stroke="#141414" stroke-width="2" stroke-miterlimit="10" stroke-linecap="square"/>
<path d="M59 71H55C53.9391 71 52.9217 71.4214 52.1716 72.1716C51.4214 72.9217 51 73.9391 51 75C51 76.0609 51.4214 77.0783 52.1716 77.8284C52.9217 78.5786 53.9391 79 55 79C56.0609 79 57.0783 78.5786 57.8284 77.8284C58.5786 77.0783 59 76.0609 59 75V71Z" stroke="#141414" stroke-width="2" stroke-miterlimit="10" stroke-linecap="square"/>
<path d="M71 71H75C76.0609 71 77.0783 71.4214 77.8284 72.1716C78.5786 72.9217 79 73.9391 79 75C79 76.0609 78.5786 77.0783 77.8284 77.8284C77.0783 78.5786 76.0609 79 75 79C73.9391 79 72.9217 78.5786 72.1716 77.8284C71.4214 77.0783 71 76.0609 71 75V71Z" stroke="#141414" stroke-width="2" stroke-miterlimit="10" stroke-linecap="square"/>
<path d="M83 43H47C44.7909 43 43 44.7909 43 47V83C43 85.2091 44.7909 87 47 87H83C85.2091 87 87 85.2091 87 83V47C87 44.7909 85.2091 43 83 43Z" stroke="#141414" stroke-width="2" stroke-miterlimit="10" stroke-linecap="square"/>
<path d="M37 73H33C31.9391 73 30.9217 72.5786 30.1716 71.8284C29.4214 71.0783 29 70.0609 29 69V33C29 31.9391 29.4214 30.9217 30.1716 30.1716C30.9217 29.4214 31.9391 29 33 29H69C70.0609 29 71.0783 29.4214 71.8284 30.1716C72.5786 30.9217 73 31.9391 73 33V37" stroke="#141414" stroke-width="2" stroke-miterlimit="10" stroke-linecap="square"/>
</svg>
